<?xml version="1.0" encoding="UTF-8" standalone="no"?>
<!DOCTYPE svg PUBLIC "-//W3C//DTD SVG 1.1//EN"
 "http://www.w3.org/Graphics/SVG/1.1/DTD/svg11.dtd">
<!-- Generated by graphviz version 7.0.6 (20230106.0513)
 -->
<!-- Pages: 1 -->
<svg width="314pt" height="332pt"
 viewBox="0.00 0.00 314.00 332.00" xmlns="http://www.w3.org/2000/svg" xmlns:xlink="http://www.w3.org/1999/xlink">
<g id="graph0" class="graph" transform="scale(1 1) rotate(0) translate(4 328)">
<polygon fill="white" stroke="none" points="-4,4 -4,-328 310,-328 310,4 -4,4"/>
<!-- 4886851120 -->
<g id="node1" class="node">
<title>4886851120</title>
<ellipse fill="none" stroke="black" cx="171" cy="-306" rx="27" ry="18"/>
<text text-anchor="middle" x="171" y="-302.3" font-family="Times,serif" font-size="14.00">div</text>
</g>
<!-- 5416639584 -->
<g id="node2" class="node">
<title>5416639584</title>
<ellipse fill="none" stroke="black" cx="135" cy="-234" rx="27" ry="18"/>
<text text-anchor="middle" x="135" y="-230.3" font-family="Times,serif" font-size="14.00">add</text>
</g>
<!-- 4886851120&#45;&gt;5416639584 -->
<g id="edge7" class="edge">
<title>4886851120&#45;&gt;5416639584</title>
<path fill="none" stroke="black" d="M162.65,-288.76C158.42,-280.55 153.19,-270.37 148.42,-261.09"/>
<polygon fill="black" stroke="black" points="151.68,-259.79 144,-252.49 145.46,-262.99 151.68,-259.79"/>
</g>
<!-- 5417201776 -->
<g id="node9" class="node">
<title>5417201776</title>
<ellipse fill="none" stroke="black" cx="207" cy="-234" rx="27" ry="18"/>
<text text-anchor="middle" x="207" y="-230.3" font-family="Times,serif" font-size="14.00">div</text>
</g>
<!-- 4886851120&#45;&gt;5417201776 -->
<g id="edge14" class="edge">
<title>4886851120&#45;&gt;5417201776</title>
<path fill="none" stroke="black" d="M179.35,-288.76C183.58,-280.55 188.81,-270.37 193.58,-261.09"/>
<polygon fill="black" stroke="black" points="196.54,-262.99 198,-252.49 190.32,-259.79 196.54,-262.99"/>
</g>
<!-- 4888301568 -->
<g id="node3" class="node">
<title>4888301568</title>
<ellipse fill="none" stroke="black" cx="63" cy="-162" rx="27" ry="18"/>
<text text-anchor="middle" x="63" y="-158.3" font-family="Times,serif" font-size="14.00">add</text>
</g>
<!-- 5416639584&#45;&gt;4888301568 -->
<g id="edge5" class="edge">
<title>5416639584&#45;&gt;4888301568</title>
<path fill="none" stroke="black" d="M120.08,-218.5C110.23,-208.92 97.14,-196.19 85.97,-185.34"/>
<polygon fill="black" stroke="black" points="88.59,-183 78.98,-178.54 83.71,-188.02 88.59,-183"/>
</g>
<!-- 5417196832 -->
<g id="node8" class="node">
<title>5417196832</title>
<ellipse fill="none" stroke="black" cx="135" cy="-162" rx="27" ry="18"/>
<text text-anchor="middle" x="135" y="-158.3" font-family="Times,serif" font-size="14.00">nf</text>
</g>
<!-- 5416639584&#45;&gt;5417196832 -->
<g id="edge6" class="edge">
<title>5416639584&#45;&gt;5417196832</title>
<path fill="none" stroke="black" d="M135,-215.7C135,-208.41 135,-199.73 135,-191.54"/>
<polygon fill="black" stroke="black" points="138.5,-191.62 135,-181.62 131.5,-191.62 138.5,-191.62"/>
</g>
<!-- 4888051184 -->
<g id="node4" class="node">
<title>4888051184</title>
<ellipse fill="none" stroke="black" cx="27" cy="-90" rx="27" ry="18"/>
<text text-anchor="middle" x="27" y="-86.3" font-family="Times,serif" font-size="14.00">div</text>
</g>
<!-- 4888301568&#45;&gt;4888051184 -->
<g id="edge3" class="edge">
<title>4888301568&#45;&gt;4888051184</title>
<path fill="none" stroke="black" d="M54.65,-144.76C50.42,-136.55 45.19,-126.37 40.42,-117.09"/>
<polygon fill="black" stroke="black" points="43.68,-115.79 36,-108.49 37.46,-118.99 43.68,-115.79"/>
</g>
<!-- 5417193424 -->
<g id="node7" class="node">
<title>5417193424</title>
<ellipse fill="none" stroke="black" cx="99" cy="-90" rx="27" ry="18"/>
<text text-anchor="middle" x="99" y="-86.3" font-family="Times,serif" font-size="14.00">np</text>
</g>
<!-- 4888301568&#45;&gt;5417193424 -->
<g id="edge4" class="edge">
<title>4888301568&#45;&gt;5417193424</title>
<path fill="none" stroke="black" d="M71.35,-144.76C75.58,-136.55 80.81,-126.37 85.58,-117.09"/>
<polygon fill="black" stroke="black" points="88.54,-118.99 90,-108.49 82.32,-115.79 88.54,-118.99"/>
</g>
<!-- 4888043840 -->
<g id="node5" class="node">
<title>4888043840</title>
<ellipse fill="none" stroke="black" cx="27" cy="-18" rx="27" ry="18"/>
<text text-anchor="middle" x="27" y="-14.3" font-family="Times,serif" font-size="14.00">nf</text>
</g>
<!-- 4888051184&#45;&gt;4888043840 -->
<g id="edge1" class="edge">
<title>4888051184&#45;&gt;4888043840</title>
<path fill="none" stroke="black" d="M27,-71.7C27,-64.41 27,-55.73 27,-47.54"/>
<polygon fill="black" stroke="black" points="30.5,-47.62 27,-37.62 23.5,-47.62 30.5,-47.62"/>
</g>
<!-- 5417191744 -->
<g id="node6" class="node">
<title>5417191744</title>
<ellipse fill="none" stroke="black" cx="99" cy="-18" rx="27" ry="18"/>
<text text-anchor="middle" x="99" y="-14.3" font-family="Times,serif" font-size="14.00">np</text>
</g>
<!-- 4888051184&#45;&gt;5417191744 -->
<g id="edge2" class="edge">
<title>4888051184&#45;&gt;5417191744</title>
<path fill="none" stroke="black" d="M41.92,-74.5C51.77,-64.92 64.86,-52.19 76.03,-41.34"/>
<polygon fill="black" stroke="black" points="78.29,-44.02 83.02,-34.54 73.41,-39 78.29,-44.02"/>
</g>
<!-- 5417189584 -->
<g id="node10" class="node">
<title>5417189584</title>
<ellipse fill="none" stroke="black" cx="207" cy="-162" rx="27" ry="18"/>
<text text-anchor="middle" x="207" y="-158.3" font-family="Times,serif" font-size="14.00">sub</text>
</g>
<!-- 5417201776&#45;&gt;5417189584 -->
<g id="edge12" class="edge">
<title>5417201776&#45;&gt;5417189584</title>
<path fill="none" stroke="black" d="M207,-215.7C207,-208.41 207,-199.73 207,-191.54"/>
<polygon fill="black" stroke="black" points="210.5,-191.62 207,-181.62 203.5,-191.62 210.5,-191.62"/>
</g>
<!-- 5417195008 -->
<g id="node15" class="node">
<title>5417195008</title>
<ellipse fill="none" stroke="black" cx="279" cy="-162" rx="27" ry="18"/>
<text text-anchor="middle" x="279" y="-158.3" font-family="Times,serif" font-size="14.00">nf</text>
</g>
<!-- 5417201776&#45;&gt;5417195008 -->
<g id="edge13" class="edge">
<title>5417201776&#45;&gt;5417195008</title>
<path fill="none" stroke="black" d="M221.92,-218.5C231.77,-208.92 244.86,-196.19 256.03,-185.34"/>
<polygon fill="black" stroke="black" points="258.29,-188.02 263.02,-178.54 253.41,-183 258.29,-188.02"/>
</g>
<!-- 5417189824 -->
<g id="node11" class="node">
<title>5417189824</title>
<ellipse fill="none" stroke="black" cx="171" cy="-90" rx="27" ry="18"/>
<text text-anchor="middle" x="171" y="-86.3" font-family="Times,serif" font-size="14.00">nf</text>
</g>
<!-- 5417189584&#45;&gt;5417189824 -->
<g id="edge8" class="edge">
<title>5417189584&#45;&gt;5417189824</title>
<path fill="none" stroke="black" d="M198.65,-144.76C194.42,-136.55 189.19,-126.37 184.42,-117.09"/>
<polygon fill="black" stroke="black" points="187.68,-115.79 180,-108.49 181.46,-118.99 187.68,-115.79"/>
</g>
<!-- 5417191648 -->
<g id="node12" class="node">
<title>5417191648</title>
<ellipse fill="none" stroke="black" cx="243" cy="-90" rx="27" ry="18"/>
<text text-anchor="middle" x="243" y="-86.3" font-family="Times,serif" font-size="14.00">add</text>
</g>
<!-- 5417189584&#45;&gt;5417191648 -->
<g id="edge11" class="edge">
<title>5417189584&#45;&gt;5417191648</title>
<path fill="none" stroke="black" d="M215.35,-144.76C219.58,-136.55 224.81,-126.37 229.58,-117.09"/>
<polygon fill="black" stroke="black" points="232.54,-118.99 234,-108.49 226.32,-115.79 232.54,-118.99"/>
</g>
<!-- 5417198944 -->
<g id="node13" class="node">
<title>5417198944</title>
<ellipse fill="none" stroke="black" cx="207" cy="-18" rx="27" ry="18"/>
<text text-anchor="middle" x="207" y="-14.3" font-family="Times,serif" font-size="14.00">np</text>
</g>
<!-- 5417191648&#45;&gt;5417198944 -->
<g id="edge9" class="edge">
<title>5417191648&#45;&gt;5417198944</title>
<path fill="none" stroke="black" d="M234.65,-72.76C230.42,-64.55 225.19,-54.37 220.42,-45.09"/>
<polygon fill="black" stroke="black" points="223.68,-43.79 216,-36.49 217.46,-46.99 223.68,-43.79"/>
</g>
<!-- 5417191984 -->
<g id="node14" class="node">
<title>5417191984</title>
<ellipse fill="none" stroke="black" cx="279" cy="-18" rx="27" ry="18"/>
<text text-anchor="middle" x="279" y="-14.3" font-family="Times,serif" font-size="14.00">nf</text>
</g>
<!-- 5417191648&#45;&gt;5417191984 -->
<g id="edge10" class="edge">
<title>5417191648&#45;&gt;5417191984</title>
<path fill="none" stroke="black" d="M251.35,-72.76C255.58,-64.55 260.81,-54.37 265.58,-45.09"/>
<polygon fill="black" stroke="black" points="268.54,-46.99 270,-36.49 262.32,-43.79 268.54,-46.99"/>
</g>
</g>
</svg>
