<?xml version="1.0" encoding="UTF-8" standalone="no"?>
<!DOCTYPE svg PUBLIC "-//W3C//DTD SVG 1.1//EN"
 "http://www.w3.org/Graphics/SVG/1.1/DTD/svg11.dtd">
<!-- Generated by graphviz version 7.0.6 (20230106.0513)
 -->
<!-- Pages: 1 -->
<svg width="422pt" height="332pt"
 viewBox="0.00 0.00 422.00 332.00" xmlns="http://www.w3.org/2000/svg" xmlns:xlink="http://www.w3.org/1999/xlink">
<g id="graph0" class="graph" transform="scale(1 1) rotate(0) translate(4 328)">
<polygon fill="white" stroke="none" points="-4,4 -4,-328 418,-328 418,4 -4,4"/>
<!-- 4884820560 -->
<g id="node1" class="node">
<title>4884820560</title>
<ellipse fill="none" stroke="black" cx="207" cy="-306" rx="27" ry="18"/>
<text text-anchor="middle" x="207" y="-302.3" font-family="Times,serif" font-size="14.00">add</text>
</g>
<!-- 4886844160 -->
<g id="node2" class="node">
<title>4886844160</title>
<ellipse fill="none" stroke="black" cx="171" cy="-234" rx="27" ry="18"/>
<text text-anchor="middle" x="171" y="-230.3" font-family="Times,serif" font-size="14.00">div</text>
</g>
<!-- 4884820560&#45;&gt;4886844160 -->
<g id="edge9" class="edge">
<title>4884820560&#45;&gt;4886844160</title>
<path fill="none" stroke="black" d="M198.65,-288.76C194.42,-280.55 189.19,-270.37 184.42,-261.09"/>
<polygon fill="black" stroke="black" points="187.68,-259.79 180,-252.49 181.46,-262.99 187.68,-259.79"/>
</g>
<!-- 4887071616 -->
<g id="node11" class="node">
<title>4887071616</title>
<ellipse fill="none" stroke="black" cx="243" cy="-234" rx="27" ry="18"/>
<text text-anchor="middle" x="243" y="-230.3" font-family="Times,serif" font-size="14.00">mul</text>
</g>
<!-- 4884820560&#45;&gt;4887071616 -->
<g id="edge14" class="edge">
<title>4884820560&#45;&gt;4887071616</title>
<path fill="none" stroke="black" d="M215.35,-288.76C219.58,-280.55 224.81,-270.37 229.58,-261.09"/>
<polygon fill="black" stroke="black" points="232.54,-262.99 234,-252.49 226.32,-259.79 232.54,-262.99"/>
</g>
<!-- 4886853760 -->
<g id="node3" class="node">
<title>4886853760</title>
<ellipse fill="none" stroke="black" cx="99" cy="-162" rx="27" ry="18"/>
<text text-anchor="middle" x="99" y="-158.3" font-family="Times,serif" font-size="14.00">div</text>
</g>
<!-- 4886844160&#45;&gt;4886853760 -->
<g id="edge3" class="edge">
<title>4886844160&#45;&gt;4886853760</title>
<path fill="none" stroke="black" d="M156.08,-218.5C146.23,-208.92 133.14,-196.19 121.97,-185.34"/>
<polygon fill="black" stroke="black" points="124.59,-183 114.98,-178.54 119.71,-188.02 124.59,-183"/>
</g>
<!-- 4886855248 -->
<g id="node6" class="node">
<title>4886855248</title>
<ellipse fill="none" stroke="black" cx="171" cy="-162" rx="27" ry="18"/>
<text text-anchor="middle" x="171" y="-158.3" font-family="Times,serif" font-size="14.00">mul</text>
</g>
<!-- 4886844160&#45;&gt;4886855248 -->
<g id="edge8" class="edge">
<title>4886844160&#45;&gt;4886855248</title>
<path fill="none" stroke="black" d="M171,-215.7C171,-208.41 171,-199.73 171,-191.54"/>
<polygon fill="black" stroke="black" points="174.5,-191.62 171,-181.62 167.5,-191.62 174.5,-191.62"/>
</g>
<!-- 4886850688 -->
<g id="node4" class="node">
<title>4886850688</title>
<ellipse fill="none" stroke="black" cx="27" cy="-90" rx="27" ry="18"/>
<text text-anchor="middle" x="27" y="-86.3" font-family="Times,serif" font-size="14.00">B</text>
</g>
<!-- 4886853760&#45;&gt;4886850688 -->
<g id="edge1" class="edge">
<title>4886853760&#45;&gt;4886850688</title>
<path fill="none" stroke="black" d="M84.08,-146.5C74.23,-136.92 61.14,-124.19 49.97,-113.34"/>
<polygon fill="black" stroke="black" points="52.59,-111 42.98,-106.54 47.71,-116.02 52.59,-111"/>
</g>
<!-- 4886844208 -->
<g id="node5" class="node">
<title>4886844208</title>
<ellipse fill="none" stroke="black" cx="99" cy="-90" rx="27" ry="18"/>
<text text-anchor="middle" x="99" y="-86.3" font-family="Times,serif" font-size="14.00">4</text>
</g>
<!-- 4886853760&#45;&gt;4886844208 -->
<g id="edge2" class="edge">
<title>4886853760&#45;&gt;4886844208</title>
<path fill="none" stroke="black" d="M99,-143.7C99,-136.41 99,-127.73 99,-119.54"/>
<polygon fill="black" stroke="black" points="102.5,-119.62 99,-109.62 95.5,-119.62 102.5,-119.62"/>
</g>
<!-- 4887071520 -->
<g id="node7" class="node">
<title>4887071520</title>
<ellipse fill="none" stroke="black" cx="171" cy="-90" rx="27" ry="18"/>
<text text-anchor="middle" x="171" y="-86.3" font-family="Times,serif" font-size="14.00">D</text>
</g>
<!-- 4886855248&#45;&gt;4887071520 -->
<g id="edge4" class="edge">
<title>4886855248&#45;&gt;4887071520</title>
<path fill="none" stroke="black" d="M171,-143.7C171,-136.41 171,-127.73 171,-119.54"/>
<polygon fill="black" stroke="black" points="174.5,-119.62 171,-109.62 167.5,-119.62 174.5,-119.62"/>
</g>
<!-- 4887071424 -->
<g id="node8" class="node">
<title>4887071424</title>
<ellipse fill="none" stroke="black" cx="243" cy="-90" rx="27" ry="18"/>
<text text-anchor="middle" x="243" y="-86.3" font-family="Times,serif" font-size="14.00">mul</text>
</g>
<!-- 4886855248&#45;&gt;4887071424 -->
<g id="edge7" class="edge">
<title>4886855248&#45;&gt;4887071424</title>
<path fill="none" stroke="black" d="M185.92,-146.5C195.77,-136.92 208.86,-124.19 220.03,-113.34"/>
<polygon fill="black" stroke="black" points="222.29,-116.02 227.02,-106.54 217.41,-111 222.29,-116.02"/>
</g>
<!-- 4886855584 -->
<g id="node9" class="node">
<title>4886855584</title>
<ellipse fill="none" stroke="black" cx="207" cy="-18" rx="27" ry="18"/>
<text text-anchor="middle" x="207" y="-14.3" font-family="Times,serif" font-size="14.00">&#45;3</text>
</g>
<!-- 4887071424&#45;&gt;4886855584 -->
<g id="edge5" class="edge">
<title>4887071424&#45;&gt;4886855584</title>
<path fill="none" stroke="black" d="M234.65,-72.76C230.42,-64.55 225.19,-54.37 220.42,-45.09"/>
<polygon fill="black" stroke="black" points="223.68,-43.79 216,-36.49 217.46,-46.99 223.68,-43.79"/>
</g>
<!-- 4887070320 -->
<g id="node10" class="node">
<title>4887070320</title>
<ellipse fill="none" stroke="black" cx="279" cy="-18" rx="27" ry="18"/>
<text text-anchor="middle" x="279" y="-14.3" font-family="Times,serif" font-size="14.00">1</text>
</g>
<!-- 4887071424&#45;&gt;4887070320 -->
<g id="edge6" class="edge">
<title>4887071424&#45;&gt;4887070320</title>
<path fill="none" stroke="black" d="M251.35,-72.76C255.58,-64.55 260.81,-54.37 265.58,-45.09"/>
<polygon fill="black" stroke="black" points="268.54,-46.99 270,-36.49 262.32,-43.79 268.54,-46.99"/>
</g>
<!-- 4887071712 -->
<g id="node12" class="node">
<title>4887071712</title>
<ellipse fill="none" stroke="black" cx="243" cy="-162" rx="27" ry="18"/>
<text text-anchor="middle" x="243" y="-158.3" font-family="Times,serif" font-size="14.00">B</text>
</g>
<!-- 4887071616&#45;&gt;4887071712 -->
<g id="edge10" class="edge">
<title>4887071616&#45;&gt;4887071712</title>
<path fill="none" stroke="black" d="M243,-215.7C243,-208.41 243,-199.73 243,-191.54"/>
<polygon fill="black" stroke="black" points="246.5,-191.62 243,-181.62 239.5,-191.62 246.5,-191.62"/>
</g>
<!-- 4887071088 -->
<g id="node13" class="node">
<title>4887071088</title>
<ellipse fill="none" stroke="black" cx="315" cy="-162" rx="27" ry="18"/>
<text text-anchor="middle" x="315" y="-158.3" font-family="Times,serif" font-size="14.00">div</text>
</g>
<!-- 4887071616&#45;&gt;4887071088 -->
<g id="edge13" class="edge">
<title>4887071616&#45;&gt;4887071088</title>
<path fill="none" stroke="black" d="M257.92,-218.5C267.77,-208.92 280.86,-196.19 292.03,-185.34"/>
<polygon fill="black" stroke="black" points="294.29,-188.02 299.02,-178.54 289.41,-183 294.29,-188.02"/>
</g>
<!-- 4887070992 -->
<g id="node14" class="node">
<title>4887070992</title>
<ellipse fill="none" stroke="black" cx="315" cy="-90" rx="27" ry="18"/>
<text text-anchor="middle" x="315" y="-86.3" font-family="Times,serif" font-size="14.00">D</text>
</g>
<!-- 4887071088&#45;&gt;4887070992 -->
<g id="edge11" class="edge">
<title>4887071088&#45;&gt;4887070992</title>
<path fill="none" stroke="black" d="M315,-143.7C315,-136.41 315,-127.73 315,-119.54"/>
<polygon fill="black" stroke="black" points="318.5,-119.62 315,-109.62 311.5,-119.62 318.5,-119.62"/>
</g>
<!-- 4887070896 -->
<g id="node15" class="node">
<title>4887070896</title>
<ellipse fill="none" stroke="black" cx="387" cy="-90" rx="27" ry="18"/>
<text text-anchor="middle" x="387" y="-86.3" font-family="Times,serif" font-size="14.00">C</text>
</g>
<!-- 4887071088&#45;&gt;4887070896 -->
<g id="edge12" class="edge">
<title>4887071088&#45;&gt;4887070896</title>
<path fill="none" stroke="black" d="M329.92,-146.5C339.77,-136.92 352.86,-124.19 364.03,-113.34"/>
<polygon fill="black" stroke="black" points="366.29,-116.02 371.02,-106.54 361.41,-111 366.29,-116.02"/>
</g>
</g>
</svg>
