<?xml version="1.0" encoding="UTF-8" standalone="no"?>
<!DOCTYPE svg PUBLIC "-//W3C//DTD SVG 1.1//EN"
 "http://www.w3.org/Graphics/SVG/1.1/DTD/svg11.dtd">
<!-- Generated by graphviz version 7.0.6 (20230106.0513)
 -->
<!-- Pages: 1 -->
<svg width="494pt" height="476pt"
 viewBox="0.00 0.00 494.00 476.00" xmlns="http://www.w3.org/2000/svg" xmlns:xlink="http://www.w3.org/1999/xlink">
<g id="graph0" class="graph" transform="scale(1 1) rotate(0) translate(4 472)">
<polygon fill="white" stroke="none" points="-4,4 -4,-472 490,-472 490,4 -4,4"/>
<!-- 4887190528 -->
<g id="node1" class="node">
<title>4887190528</title>
<ellipse fill="none" stroke="black" cx="135" cy="-450" rx="27" ry="18"/>
<text text-anchor="middle" x="135" y="-446.3" font-family="Times,serif" font-size="14.00">sub</text>
</g>
<!-- 4887211616 -->
<g id="node2" class="node">
<title>4887211616</title>
<ellipse fill="none" stroke="black" cx="99" cy="-378" rx="27" ry="18"/>
<text text-anchor="middle" x="99" y="-374.3" font-family="Times,serif" font-size="14.00">add</text>
</g>
<!-- 4887190528&#45;&gt;4887211616 -->
<g id="edge5" class="edge">
<title>4887190528&#45;&gt;4887211616</title>
<path fill="none" stroke="black" d="M126.65,-432.76C122.42,-424.55 117.19,-414.37 112.42,-405.09"/>
<polygon fill="black" stroke="black" points="115.68,-403.79 108,-396.49 109.46,-406.99 115.68,-403.79"/>
</g>
<!-- 4887211184 -->
<g id="node7" class="node">
<title>4887211184</title>
<ellipse fill="none" stroke="black" cx="207" cy="-378" rx="27" ry="18"/>
<text text-anchor="middle" x="207" y="-374.3" font-family="Times,serif" font-size="14.00">mul</text>
</g>
<!-- 4887190528&#45;&gt;4887211184 -->
<g id="edge26" class="edge">
<title>4887190528&#45;&gt;4887211184</title>
<path fill="none" stroke="black" d="M149.92,-434.5C159.77,-424.92 172.86,-412.19 184.03,-401.34"/>
<polygon fill="black" stroke="black" points="186.29,-404.02 191.02,-394.54 181.41,-399 186.29,-404.02"/>
</g>
<!-- 4887215984 -->
<g id="node3" class="node">
<title>4887215984</title>
<ellipse fill="none" stroke="black" cx="27" cy="-306" rx="27" ry="18"/>
<text text-anchor="middle" x="27" y="-302.3" font-family="Times,serif" font-size="14.00">x</text>
</g>
<!-- 4887211616&#45;&gt;4887215984 -->
<g id="edge1" class="edge">
<title>4887211616&#45;&gt;4887215984</title>
<path fill="none" stroke="black" d="M84.08,-362.5C74.23,-352.92 61.14,-340.19 49.97,-329.34"/>
<polygon fill="black" stroke="black" points="52.59,-327 42.98,-322.54 47.71,-332.02 52.59,-327"/>
</g>
<!-- 4887210848 -->
<g id="node4" class="node">
<title>4887210848</title>
<ellipse fill="none" stroke="black" cx="99" cy="-306" rx="27" ry="18"/>
<text text-anchor="middle" x="99" y="-302.3" font-family="Times,serif" font-size="14.00">div</text>
</g>
<!-- 4887211616&#45;&gt;4887210848 -->
<g id="edge4" class="edge">
<title>4887211616&#45;&gt;4887210848</title>
<path fill="none" stroke="black" d="M99,-359.7C99,-352.41 99,-343.73 99,-335.54"/>
<polygon fill="black" stroke="black" points="102.5,-335.62 99,-325.62 95.5,-335.62 102.5,-335.62"/>
</g>
<!-- 4887213200 -->
<g id="node5" class="node">
<title>4887213200</title>
<ellipse fill="none" stroke="black" cx="27" cy="-234" rx="27" ry="18"/>
<text text-anchor="middle" x="27" y="-230.3" font-family="Times,serif" font-size="14.00">x</text>
</g>
<!-- 4887210848&#45;&gt;4887213200 -->
<g id="edge2" class="edge">
<title>4887210848&#45;&gt;4887213200</title>
<path fill="none" stroke="black" d="M84.08,-290.5C74.23,-280.92 61.14,-268.19 49.97,-257.34"/>
<polygon fill="black" stroke="black" points="52.59,-255 42.98,-250.54 47.71,-260.02 52.59,-255"/>
</g>
<!-- 4887206960 -->
<g id="node6" class="node">
<title>4887206960</title>
<ellipse fill="none" stroke="black" cx="99" cy="-234" rx="27" ry="18"/>
<text text-anchor="middle" x="99" y="-230.3" font-family="Times,serif" font-size="14.00">x</text>
</g>
<!-- 4887210848&#45;&gt;4887206960 -->
<g id="edge3" class="edge">
<title>4887210848&#45;&gt;4887206960</title>
<path fill="none" stroke="black" d="M99,-287.7C99,-280.41 99,-271.73 99,-263.54"/>
<polygon fill="black" stroke="black" points="102.5,-263.62 99,-253.62 95.5,-263.62 102.5,-263.62"/>
</g>
<!-- 4887215888 -->
<g id="node8" class="node">
<title>4887215888</title>
<ellipse fill="none" stroke="black" cx="207" cy="-306" rx="27" ry="18"/>
<text text-anchor="middle" x="207" y="-302.3" font-family="Times,serif" font-size="14.00">mul</text>
</g>
<!-- 4887211184&#45;&gt;4887215888 -->
<g id="edge16" class="edge">
<title>4887211184&#45;&gt;4887215888</title>
<path fill="none" stroke="black" d="M207,-359.7C207,-352.41 207,-343.73 207,-335.54"/>
<polygon fill="black" stroke="black" points="210.5,-335.62 207,-325.62 203.5,-335.62 210.5,-335.62"/>
</g>
<!-- 4887211040 -->
<g id="node19" class="node">
<title>4887211040</title>
<ellipse fill="none" stroke="black" cx="315" cy="-306" rx="27" ry="18"/>
<text text-anchor="middle" x="315" y="-302.3" font-family="Times,serif" font-size="14.00">add</text>
</g>
<!-- 4887211184&#45;&gt;4887211040 -->
<g id="edge25" class="edge">
<title>4887211184&#45;&gt;4887211040</title>
<path fill="none" stroke="black" d="M225.81,-364.81C242.59,-353.93 267.39,-337.86 286.59,-325.42"/>
<polygon fill="black" stroke="black" points="288.28,-328.49 294.77,-320.11 284.48,-322.61 288.28,-328.49"/>
</g>
<!-- 4887212240 -->
<g id="node9" class="node">
<title>4887212240</title>
<ellipse fill="none" stroke="black" cx="171" cy="-234" rx="27" ry="18"/>
<text text-anchor="middle" x="171" y="-230.3" font-family="Times,serif" font-size="14.00">&#45;1</text>
</g>
<!-- 4887215888&#45;&gt;4887212240 -->
<g id="edge6" class="edge">
<title>4887215888&#45;&gt;4887212240</title>
<path fill="none" stroke="black" d="M198.65,-288.76C194.42,-280.55 189.19,-270.37 184.42,-261.09"/>
<polygon fill="black" stroke="black" points="187.68,-259.79 180,-252.49 181.46,-262.99 187.68,-259.79"/>
</g>
<!-- 4887207776 -->
<g id="node10" class="node">
<title>4887207776</title>
<ellipse fill="none" stroke="black" cx="243" cy="-234" rx="27" ry="18"/>
<text text-anchor="middle" x="243" y="-230.3" font-family="Times,serif" font-size="14.00">sub</text>
</g>
<!-- 4887215888&#45;&gt;4887207776 -->
<g id="edge15" class="edge">
<title>4887215888&#45;&gt;4887207776</title>
<path fill="none" stroke="black" d="M215.35,-288.76C219.58,-280.55 224.81,-270.37 229.58,-261.09"/>
<polygon fill="black" stroke="black" points="232.54,-262.99 234,-252.49 226.32,-259.79 232.54,-262.99"/>
</g>
<!-- 4887206384 -->
<g id="node11" class="node">
<title>4887206384</title>
<ellipse fill="none" stroke="black" cx="171" cy="-162" rx="27" ry="18"/>
<text text-anchor="middle" x="171" y="-158.3" font-family="Times,serif" font-size="14.00">x</text>
</g>
<!-- 4887207776&#45;&gt;4887206384 -->
<g id="edge7" class="edge">
<title>4887207776&#45;&gt;4887206384</title>
<path fill="none" stroke="black" d="M228.08,-218.5C218.23,-208.92 205.14,-196.19 193.97,-185.34"/>
<polygon fill="black" stroke="black" points="196.59,-183 186.98,-178.54 191.71,-188.02 196.59,-183"/>
</g>
<!-- 4887214640 -->
<g id="node12" class="node">
<title>4887214640</title>
<ellipse fill="none" stroke="black" cx="243" cy="-162" rx="27" ry="18"/>
<text text-anchor="middle" x="243" y="-158.3" font-family="Times,serif" font-size="14.00">add</text>
</g>
<!-- 4887207776&#45;&gt;4887214640 -->
<g id="edge14" class="edge">
<title>4887207776&#45;&gt;4887214640</title>
<path fill="none" stroke="black" d="M243,-215.7C243,-208.41 243,-199.73 243,-191.54"/>
<polygon fill="black" stroke="black" points="246.5,-191.62 243,-181.62 239.5,-191.62 246.5,-191.62"/>
</g>
<!-- 4887216080 -->
<g id="node13" class="node">
<title>4887216080</title>
<ellipse fill="none" stroke="black" cx="171" cy="-90" rx="27" ry="18"/>
<text text-anchor="middle" x="171" y="-86.3" font-family="Times,serif" font-size="14.00">sub</text>
</g>
<!-- 4887214640&#45;&gt;4887216080 -->
<g id="edge10" class="edge">
<title>4887214640&#45;&gt;4887216080</title>
<path fill="none" stroke="black" d="M228.08,-146.5C218.23,-136.92 205.14,-124.19 193.97,-113.34"/>
<polygon fill="black" stroke="black" points="196.59,-111 186.98,-106.54 191.71,-116.02 196.59,-111"/>
</g>
<!-- 4887209408 -->
<g id="node16" class="node">
<title>4887209408</title>
<ellipse fill="none" stroke="black" cx="243" cy="-90" rx="27" ry="18"/>
<text text-anchor="middle" x="243" y="-86.3" font-family="Times,serif" font-size="14.00">sub</text>
</g>
<!-- 4887214640&#45;&gt;4887209408 -->
<g id="edge13" class="edge">
<title>4887214640&#45;&gt;4887209408</title>
<path fill="none" stroke="black" d="M243,-143.7C243,-136.41 243,-127.73 243,-119.54"/>
<polygon fill="black" stroke="black" points="246.5,-119.62 243,-109.62 239.5,-119.62 246.5,-119.62"/>
</g>
<!-- 4887210800 -->
<g id="node14" class="node">
<title>4887210800</title>
<ellipse fill="none" stroke="black" cx="99" cy="-18" rx="27" ry="18"/>
<text text-anchor="middle" x="99" y="-14.3" font-family="Times,serif" font-size="14.00">x</text>
</g>
<!-- 4887216080&#45;&gt;4887210800 -->
<g id="edge8" class="edge">
<title>4887216080&#45;&gt;4887210800</title>
<path fill="none" stroke="black" d="M156.08,-74.5C146.23,-64.92 133.14,-52.19 121.97,-41.34"/>
<polygon fill="black" stroke="black" points="124.59,-39 114.98,-34.54 119.71,-44.02 124.59,-39"/>
</g>
<!-- 4887209792 -->
<g id="node15" class="node">
<title>4887209792</title>
<ellipse fill="none" stroke="black" cx="171" cy="-18" rx="27" ry="18"/>
<text text-anchor="middle" x="171" y="-14.3" font-family="Times,serif" font-size="14.00">x</text>
</g>
<!-- 4887216080&#45;&gt;4887209792 -->
<g id="edge9" class="edge">
<title>4887216080&#45;&gt;4887209792</title>
<path fill="none" stroke="black" d="M171,-71.7C171,-64.41 171,-55.73 171,-47.54"/>
<polygon fill="black" stroke="black" points="174.5,-47.62 171,-37.62 167.5,-47.62 174.5,-47.62"/>
</g>
<!-- 4887215024 -->
<g id="node17" class="node">
<title>4887215024</title>
<ellipse fill="none" stroke="black" cx="243" cy="-18" rx="27" ry="18"/>
<text text-anchor="middle" x="243" y="-14.3" font-family="Times,serif" font-size="14.00">x</text>
</g>
<!-- 4887209408&#45;&gt;4887215024 -->
<g id="edge11" class="edge">
<title>4887209408&#45;&gt;4887215024</title>
<path fill="none" stroke="black" d="M243,-71.7C243,-64.41 243,-55.73 243,-47.54"/>
<polygon fill="black" stroke="black" points="246.5,-47.62 243,-37.62 239.5,-47.62 246.5,-47.62"/>
</g>
<!-- 4887209984 -->
<g id="node18" class="node">
<title>4887209984</title>
<ellipse fill="none" stroke="black" cx="315" cy="-18" rx="27" ry="18"/>
<text text-anchor="middle" x="315" y="-14.3" font-family="Times,serif" font-size="14.00">x</text>
</g>
<!-- 4887209408&#45;&gt;4887209984 -->
<g id="edge12" class="edge">
<title>4887209408&#45;&gt;4887209984</title>
<path fill="none" stroke="black" d="M257.92,-74.5C267.77,-64.92 280.86,-52.19 292.03,-41.34"/>
<polygon fill="black" stroke="black" points="294.29,-44.02 299.02,-34.54 289.41,-39 294.29,-44.02"/>
</g>
<!-- 4887211136 -->
<g id="node20" class="node">
<title>4887211136</title>
<ellipse fill="none" stroke="black" cx="315" cy="-234" rx="27" ry="18"/>
<text text-anchor="middle" x="315" y="-230.3" font-family="Times,serif" font-size="14.00">mul</text>
</g>
<!-- 4887211040&#45;&gt;4887211136 -->
<g id="edge23" class="edge">
<title>4887211040&#45;&gt;4887211136</title>
<path fill="none" stroke="black" d="M315,-287.7C315,-280.41 315,-271.73 315,-263.54"/>
<polygon fill="black" stroke="black" points="318.5,-263.62 315,-253.62 311.5,-263.62 318.5,-263.62"/>
</g>
<!-- 4887211376 -->
<g id="node27" class="node">
<title>4887211376</title>
<ellipse fill="none" stroke="black" cx="387" cy="-234" rx="27" ry="18"/>
<text text-anchor="middle" x="387" y="-230.3" font-family="Times,serif" font-size="14.00">x</text>
</g>
<!-- 4887211040&#45;&gt;4887211376 -->
<g id="edge24" class="edge">
<title>4887211040&#45;&gt;4887211376</title>
<path fill="none" stroke="black" d="M329.92,-290.5C339.77,-280.92 352.86,-268.19 364.03,-257.34"/>
<polygon fill="black" stroke="black" points="366.29,-260.02 371.02,-250.54 361.41,-255 366.29,-260.02"/>
</g>
<!-- 4887213392 -->
<g id="node21" class="node">
<title>4887213392</title>
<ellipse fill="none" stroke="black" cx="315" cy="-162" rx="27" ry="18"/>
<text text-anchor="middle" x="315" y="-158.3" font-family="Times,serif" font-size="14.00">x</text>
</g>
<!-- 4887211136&#45;&gt;4887213392 -->
<g id="edge17" class="edge">
<title>4887211136&#45;&gt;4887213392</title>
<path fill="none" stroke="black" d="M315,-215.7C315,-208.41 315,-199.73 315,-191.54"/>
<polygon fill="black" stroke="black" points="318.5,-191.62 315,-181.62 311.5,-191.62 318.5,-191.62"/>
</g>
<!-- 4887209840 -->
<g id="node22" class="node">
<title>4887209840</title>
<ellipse fill="none" stroke="black" cx="387" cy="-162" rx="27" ry="18"/>
<text text-anchor="middle" x="387" y="-158.3" font-family="Times,serif" font-size="14.00">mul</text>
</g>
<!-- 4887211136&#45;&gt;4887209840 -->
<g id="edge22" class="edge">
<title>4887211136&#45;&gt;4887209840</title>
<path fill="none" stroke="black" d="M329.92,-218.5C339.77,-208.92 352.86,-196.19 364.03,-185.34"/>
<polygon fill="black" stroke="black" points="366.29,-188.02 371.02,-178.54 361.41,-183 366.29,-188.02"/>
</g>
<!-- 4887209744 -->
<g id="node23" class="node">
<title>4887209744</title>
<ellipse fill="none" stroke="black" cx="387" cy="-90" rx="27" ry="18"/>
<text text-anchor="middle" x="387" y="-86.3" font-family="Times,serif" font-size="14.00">sub</text>
</g>
<!-- 4887209840&#45;&gt;4887209744 -->
<g id="edge20" class="edge">
<title>4887209840&#45;&gt;4887209744</title>
<path fill="none" stroke="black" d="M387,-143.7C387,-136.41 387,-127.73 387,-119.54"/>
<polygon fill="black" stroke="black" points="390.5,-119.62 387,-109.62 383.5,-119.62 390.5,-119.62"/>
</g>
<!-- 4887207248 -->
<g id="node26" class="node">
<title>4887207248</title>
<ellipse fill="none" stroke="black" cx="459" cy="-90" rx="27" ry="18"/>
<text text-anchor="middle" x="459" y="-86.3" font-family="Times,serif" font-size="14.00">&#45;1</text>
</g>
<!-- 4887209840&#45;&gt;4887207248 -->
<g id="edge21" class="edge">
<title>4887209840&#45;&gt;4887207248</title>
<path fill="none" stroke="black" d="M401.92,-146.5C411.77,-136.92 424.86,-124.19 436.03,-113.34"/>
<polygon fill="black" stroke="black" points="438.29,-116.02 443.02,-106.54 433.41,-111 438.29,-116.02"/>
</g>
<!-- 4887214400 -->
<g id="node24" class="node">
<title>4887214400</title>
<ellipse fill="none" stroke="black" cx="387" cy="-18" rx="27" ry="18"/>
<text text-anchor="middle" x="387" y="-14.3" font-family="Times,serif" font-size="14.00">x</text>
</g>
<!-- 4887209744&#45;&gt;4887214400 -->
<g id="edge18" class="edge">
<title>4887209744&#45;&gt;4887214400</title>
<path fill="none" stroke="black" d="M387,-71.7C387,-64.41 387,-55.73 387,-47.54"/>
<polygon fill="black" stroke="black" points="390.5,-47.62 387,-37.62 383.5,-47.62 390.5,-47.62"/>
</g>
<!-- 4887208352 -->
<g id="node25" class="node">
<title>4887208352</title>
<ellipse fill="none" stroke="black" cx="459" cy="-18" rx="27" ry="18"/>
<text text-anchor="middle" x="459" y="-14.3" font-family="Times,serif" font-size="14.00">x</text>
</g>
<!-- 4887209744&#45;&gt;4887208352 -->
<g id="edge19" class="edge">
<title>4887209744&#45;&gt;4887208352</title>
<path fill="none" stroke="black" d="M401.92,-74.5C411.77,-64.92 424.86,-52.19 436.03,-41.34"/>
<polygon fill="black" stroke="black" points="438.29,-44.02 443.02,-34.54 433.41,-39 438.29,-44.02"/>
</g>
</g>
</svg>
