<?xml version="1.0" encoding="UTF-8" standalone="no"?>
<!DOCTYPE svg PUBLIC "-//W3C//DTD SVG 1.1//EN"
 "http://www.w3.org/Graphics/SVG/1.1/DTD/svg11.dtd">
<!-- Generated by graphviz version 7.0.6 (20230106.0513)
 -->
<!-- Pages: 1 -->
<svg width="332pt" height="260pt"
 viewBox="0.00 0.00 332.00 260.00" xmlns="http://www.w3.org/2000/svg" xmlns:xlink="http://www.w3.org/1999/xlink">
<g id="graph0" class="graph" transform="scale(1 1) rotate(0) translate(4 256)">
<polygon fill="white" stroke="none" points="-4,4 -4,-256 328,-256 328,4 -4,4"/>
<!-- 4888043504 -->
<g id="node1" class="node">
<title>4888043504</title>
<ellipse fill="none" stroke="black" cx="135" cy="-234" rx="27" ry="18"/>
<text text-anchor="middle" x="135" y="-230.3" font-family="Times,serif" font-size="14.00">add</text>
</g>
<!-- 4888048352 -->
<g id="node2" class="node">
<title>4888048352</title>
<ellipse fill="none" stroke="black" cx="99" cy="-162" rx="27" ry="18"/>
<text text-anchor="middle" x="99" y="-158.3" font-family="Times,serif" font-size="14.00">div</text>
</g>
<!-- 4888043504&#45;&gt;4888048352 -->
<g id="edge5" class="edge">
<title>4888043504&#45;&gt;4888048352</title>
<path fill="none" stroke="black" d="M126.65,-216.76C122.42,-208.55 117.19,-198.37 112.42,-189.09"/>
<polygon fill="black" stroke="black" points="115.68,-187.79 108,-180.49 109.46,-190.99 115.68,-187.79"/>
</g>
<!-- 4888043120 -->
<g id="node7" class="node">
<title>4888043120</title>
<ellipse fill="none" stroke="black" cx="171" cy="-162" rx="27" ry="18"/>
<text text-anchor="middle" x="171" y="-158.3" font-family="Times,serif" font-size="14.00">mul</text>
</g>
<!-- 4888043504&#45;&gt;4888043120 -->
<g id="edge10" class="edge">
<title>4888043504&#45;&gt;4888043120</title>
<path fill="none" stroke="black" d="M143.35,-216.76C147.58,-208.55 152.81,-198.37 157.58,-189.09"/>
<polygon fill="black" stroke="black" points="160.54,-190.99 162,-180.49 154.32,-187.79 160.54,-190.99"/>
</g>
<!-- 4888043984 -->
<g id="node3" class="node">
<title>4888043984</title>
<ellipse fill="none" stroke="black" cx="27" cy="-90" rx="27" ry="18"/>
<text text-anchor="middle" x="27" y="-86.3" font-family="Times,serif" font-size="14.00">D</text>
</g>
<!-- 4888048352&#45;&gt;4888043984 -->
<g id="edge1" class="edge">
<title>4888048352&#45;&gt;4888043984</title>
<path fill="none" stroke="black" d="M84.08,-146.5C74.23,-136.92 61.14,-124.19 49.97,-113.34"/>
<polygon fill="black" stroke="black" points="52.59,-111 42.98,-106.54 47.71,-116.02 52.59,-111"/>
</g>
<!-- 4888036352 -->
<g id="node4" class="node">
<title>4888036352</title>
<ellipse fill="none" stroke="black" cx="99" cy="-90" rx="27" ry="18"/>
<text text-anchor="middle" x="99" y="-86.3" font-family="Times,serif" font-size="14.00">mul</text>
</g>
<!-- 4888048352&#45;&gt;4888036352 -->
<g id="edge4" class="edge">
<title>4888048352&#45;&gt;4888036352</title>
<path fill="none" stroke="black" d="M99,-143.7C99,-136.41 99,-127.73 99,-119.54"/>
<polygon fill="black" stroke="black" points="102.5,-119.62 99,-109.62 95.5,-119.62 102.5,-119.62"/>
</g>
<!-- 4888044080 -->
<g id="node5" class="node">
<title>4888044080</title>
<ellipse fill="none" stroke="black" cx="63" cy="-18" rx="27" ry="18"/>
<text text-anchor="middle" x="63" y="-14.3" font-family="Times,serif" font-size="14.00">D</text>
</g>
<!-- 4888036352&#45;&gt;4888044080 -->
<g id="edge2" class="edge">
<title>4888036352&#45;&gt;4888044080</title>
<path fill="none" stroke="black" d="M90.65,-72.76C86.42,-64.55 81.19,-54.37 76.42,-45.09"/>
<polygon fill="black" stroke="black" points="79.68,-43.79 72,-36.49 73.46,-46.99 79.68,-43.79"/>
</g>
<!-- 4888039424 -->
<g id="node6" class="node">
<title>4888039424</title>
<ellipse fill="none" stroke="black" cx="135" cy="-18" rx="27" ry="18"/>
<text text-anchor="middle" x="135" y="-14.3" font-family="Times,serif" font-size="14.00">B</text>
</g>
<!-- 4888036352&#45;&gt;4888039424 -->
<g id="edge3" class="edge">
<title>4888036352&#45;&gt;4888039424</title>
<path fill="none" stroke="black" d="M107.35,-72.76C111.58,-64.55 116.81,-54.37 121.58,-45.09"/>
<polygon fill="black" stroke="black" points="124.54,-46.99 126,-36.49 118.32,-43.79 124.54,-46.99"/>
</g>
<!-- 4888035680 -->
<g id="node8" class="node">
<title>4888035680</title>
<ellipse fill="none" stroke="black" cx="171" cy="-90" rx="27" ry="18"/>
<text text-anchor="middle" x="171" y="-86.3" font-family="Times,serif" font-size="14.00">B</text>
</g>
<!-- 4888043120&#45;&gt;4888035680 -->
<g id="edge6" class="edge">
<title>4888043120&#45;&gt;4888035680</title>
<path fill="none" stroke="black" d="M171,-143.7C171,-136.41 171,-127.73 171,-119.54"/>
<polygon fill="black" stroke="black" points="174.5,-119.62 171,-109.62 167.5,-119.62 174.5,-119.62"/>
</g>
<!-- 4888044272 -->
<g id="node9" class="node">
<title>4888044272</title>
<ellipse fill="none" stroke="black" cx="243" cy="-90" rx="27" ry="18"/>
<text text-anchor="middle" x="243" y="-86.3" font-family="Times,serif" font-size="14.00">div</text>
</g>
<!-- 4888043120&#45;&gt;4888044272 -->
<g id="edge9" class="edge">
<title>4888043120&#45;&gt;4888044272</title>
<path fill="none" stroke="black" d="M185.92,-146.5C195.77,-136.92 208.86,-124.19 220.03,-113.34"/>
<polygon fill="black" stroke="black" points="222.29,-116.02 227.02,-106.54 217.41,-111 222.29,-116.02"/>
</g>
<!-- 4888044320 -->
<g id="node10" class="node">
<title>4888044320</title>
<ellipse fill="none" stroke="black" cx="225" cy="-18" rx="27" ry="18"/>
<text text-anchor="middle" x="225" y="-14.3" font-family="Times,serif" font-size="14.00">D</text>
</g>
<!-- 4888044272&#45;&gt;4888044320 -->
<g id="edge7" class="edge">
<title>4888044272&#45;&gt;4888044320</title>
<path fill="none" stroke="black" d="M238.64,-72.05C236.7,-64.49 234.35,-55.37 232.16,-46.85"/>
<polygon fill="black" stroke="black" points="235.57,-46.07 229.69,-37.25 228.79,-47.81 235.57,-46.07"/>
</g>
<!-- 4888045472 -->
<g id="node11" class="node">
<title>4888045472</title>
<ellipse fill="none" stroke="black" cx="297" cy="-18" rx="27" ry="18"/>
<text text-anchor="middle" x="297" y="-14.3" font-family="Times,serif" font-size="14.00">C</text>
</g>
<!-- 4888044272&#45;&gt;4888045472 -->
<g id="edge8" class="edge">
<title>4888044272&#45;&gt;4888045472</title>
<path fill="none" stroke="black" d="M254.98,-73.46C261.77,-64.67 270.4,-53.48 278.08,-43.53"/>
<polygon fill="black" stroke="black" points="280.79,-45.75 284.12,-35.69 275.25,-41.47 280.79,-45.75"/>
</g>
</g>
</svg>
